<svg width="24" height="24" viewBox="0 0 24 24" fill="none" xmlns="http://www.w3.org/2000/svg">
<g clip-path="url(#clip0_92166_818)" filter="url(#filter0_d_92166_818)">
<path opacity="0.4" d="M10.0001 3H14.0001L15.4813 0.7775C15.5316 0.702204 15.5604 0.614683 15.5648 0.524274C15.5692 0.433865 15.549 0.343958 15.5063 0.264145C15.4636 0.184332 15.4 0.117607 15.3224 0.0710869C15.2447 0.024567 15.1559 -2.23135e-06 15.0654 1.51993e-10L8.93569 1.51993e-10C8.84517 -2.23135e-06 8.75635 0.024567 8.67871 0.0710869C8.60106 0.117607 8.5375 0.184332 8.4948 0.264145C8.4521 0.343958 8.43187 0.433865 8.43627 0.524274C8.44066 0.614683 8.46952 0.702204 8.51975 0.7775L10.0001 3ZM14.0001 4H10.0001C3.67569 7.60625 4.00288 12.395 4.00288 13C4.00288 14.6562 5.53756 16 7.43038 16H16.5704C18.4635 16 19.9979 14.6562 19.9979 13C19.9979 12.4062 20.2901 7.58625 14.0001 4Z" fill="#213F7D"/>
<path d="M14.5312 3.25V3.75C14.5312 3.8163 14.5049 3.87989 14.458 3.92678C14.4111 3.97366 14.3476 4 14.2812 4H9.71875C9.65245 4 9.58886 3.97366 9.54197 3.92678C9.49509 3.87989 9.46875 3.8163 9.46875 3.75V3.25C9.46875 3.1837 9.49509 3.12011 9.54197 3.07322C9.58886 3.02634 9.65245 3 9.71875 3H14.2812C14.3476 3 14.4111 3.02634 14.458 3.07322C14.5049 3.12011 14.5312 3.1837 14.5312 3.25Z" fill="#213F7D"/>
<path d="M9.87516 12.2037V9.94087H9V9.25493H9.87516V7H11.113L12.343 9.25493H13.1787V7H14.1248V9.25493H15V9.94087H14.1248V12.2037H12.887L11.6413 9.94087H10.8213V12.2037H9.87516ZM10.8213 9.18397V9.25493H11.2628L10.8055 8.33246H10.7976L10.8213 9.18397ZM13.1945 10.8949H13.2102L13.1787 10.0749V9.94087H12.7135L12.7451 9.98817L13.1945 10.8949Z" fill="#213F7D"/>
</g>
<defs>
<filter id="filter0_d_92166_818" x="0" y="0" width="24" height="24" filterUnits="userSpaceOnUse" color-interpolation-filters="sRGB">
<feFlood flood-opacity="0" result="BackgroundImageFix"/>
<feColorMatrix in="SourceAlpha" type="matrix" values="0 0 0 0 0 0 0 0 0 0 0 0 0 0 0 0 0 0 127 0" result="hardAlpha"/>
<feOffset dy="4"/>
<feGaussianBlur stdDeviation="2"/>
<feComposite in2="hardAlpha" operator="out"/>
<feColorMatrix type="matrix" values="0 0 0 0 0 0 0 0 0 0 0 0 0 0 0 0 0 0 0.25 0"/>
<feBlend mode="normal" in2="BackgroundImageFix" result="effect1_dropShadow_92166_818"/>
<feBlend mode="normal" in="SourceGraphic" in2="effect1_dropShadow_92166_818" result="shape"/>
</filter>
<clipPath id="clip0_92166_818">
<rect width="16" height="16" fill="white" transform="translate(4)"/>
</clipPath>
</defs>
</svg>
